<svg width="170" height="133" viewBox="0 0 170 133" fill="none" xmlns="http://www.w3.org/2000/svg">
<rect width="170" height="133" fill="#F7F7F7"/>
<path d="M75.0965 65H54.1375V60.5908L61.6639 52.9824C63.8924 50.6992 65.3484 49.1201 66.032 48.2451C66.7156 47.3564 67.2078 46.5361 67.5086 45.7842C67.8094 45.0322 67.9598 44.2529 67.9598 43.4463C67.9598 42.2432 67.6248 41.3477 66.9549 40.7598C66.2986 40.1719 65.4168 39.8779 64.3094 39.8779C63.1473 39.8779 62.0193 40.1445 60.9256 40.6777C59.8318 41.2109 58.6902 41.9697 57.5008 42.9541L54.0555 38.873C55.532 37.6152 56.7557 36.7266 57.7264 36.207C58.6971 35.6875 59.7566 35.291 60.9051 35.0176C62.0535 34.7305 63.3387 34.5869 64.7605 34.5869C66.6336 34.5869 68.2879 34.9287 69.7234 35.6123C71.159 36.2959 72.2732 37.2529 73.0662 38.4834C73.8592 39.7139 74.2557 41.1221 74.2557 42.708C74.2557 44.0889 74.0096 45.3877 73.5174 46.6045C73.0389 47.8076 72.2869 49.0449 71.2615 50.3164C70.2498 51.5879 68.4588 53.3994 65.8885 55.751L62.033 59.3809V59.668H75.0965V65ZM101.027 50.0088C101.027 55.2451 100.165 59.1211 98.4426 61.6367C96.7336 64.1523 94.0949 65.4102 90.5266 65.4102C87.0676 65.4102 84.4563 64.1113 82.6926 61.5137C80.9426 58.916 80.0676 55.0811 80.0676 50.0088C80.0676 44.7178 80.9221 40.8213 82.6311 38.3193C84.34 35.8037 86.9719 34.5459 90.5266 34.5459C93.9855 34.5459 96.5969 35.8584 98.3605 38.4834C100.138 41.1084 101.027 44.9502 101.027 50.0088ZM86.3635 50.0088C86.3635 53.6865 86.6779 56.3252 87.3068 57.9248C87.9494 59.5107 89.0227 60.3037 90.5266 60.3037C92.0031 60.3037 93.0695 59.4971 93.7258 57.8838C94.382 56.2705 94.7102 53.6455 94.7102 50.0088C94.7102 46.3311 94.3752 43.6924 93.7053 42.0928C93.049 40.4795 91.9895 39.6729 90.5266 39.6729C89.0363 39.6729 87.9699 40.4795 87.3273 42.0928C86.6848 43.6924 86.3635 46.3311 86.3635 50.0088Z" fill="#303030"/>
<path d="M41.8862 95H40.6025V88.2485H38.3682C38.0853 90.5402 37.8579 92.0996 37.686 92.9268C37.5177 93.7539 37.2796 94.3304 36.9717 94.6562C36.6637 94.9785 36.2555 95.1343 35.7471 95.1235C35.4857 95.1235 35.2368 95.0788 35.0005 94.9893V93.9204C35.2046 94.0099 35.4033 94.0547 35.5967 94.0547C35.8545 94.0547 36.055 93.9007 36.1982 93.5928C36.3451 93.2812 36.5044 92.5955 36.6763 91.5356C36.8517 90.4757 37.0594 89.013 37.2993 87.1475H41.8862V95ZM42.9282 89.0596H44.3032L45.5117 92.4272C45.6943 92.9071 45.8161 93.3582 45.877 93.7808H45.9199C45.9521 93.5838 46.0112 93.3457 46.0972 93.0664C46.1831 92.7835 46.6379 91.4479 47.4614 89.0596H48.8257L46.2852 95.7896C45.8232 97.0249 45.0534 97.6426 43.9756 97.6426C43.6963 97.6426 43.4242 97.6121 43.1592 97.5513V96.5522C43.349 96.5952 43.5656 96.6167 43.8091 96.6167C44.4178 96.6167 44.8457 96.264 45.0928 95.5586L45.313 95L42.9282 89.0596ZM50.8398 89.0596V91.2295C50.8398 91.8382 51.1549 92.1426 51.7852 92.1426C52.0895 92.1426 52.3867 92.1014 52.6768 92.019C52.9668 91.9331 53.2783 91.797 53.6113 91.6108V89.0596H54.8735V95H53.6113V92.481C53.264 92.6958 52.9274 92.8551 52.6016 92.959C52.2793 93.0592 51.9266 93.1094 51.5435 93.1094C50.924 93.1094 50.4406 92.95 50.0933 92.6313C49.7459 92.3091 49.5723 91.8597 49.5723 91.2832V89.0596H50.8398ZM65.0947 95H56.6782V89.0596H57.9404V94.001H60.2554V89.0596H61.5176V94.001H63.8271V89.0596H65.0947V95ZM68.1133 89.0596V92.105C68.1133 92.4595 68.0846 92.9805 68.0273 93.668L71.0083 89.0596H72.5498V95H71.3359V92.0083C71.3359 91.8436 71.3449 91.5768 71.3628 91.208C71.3843 90.8392 71.4022 90.5706 71.4165 90.4023L68.4463 95H66.9048V89.0596H68.1133ZM75.6704 91.9653L73.6777 89.0596H75.1172L76.4707 91.1382L77.835 89.0596H79.2637L77.2656 91.9653L79.3657 95H77.937L76.4707 92.7764L75.0098 95L73.5811 95L75.6704 91.9653ZM86.6758 93.7915L86.7456 93.5337C86.8924 93.0002 87.0195 92.5902 87.127 92.3037L88.459 89.0596H90.1401V95H88.9746V90.2036L88.8779 90.5259C88.7168 91.1024 88.5807 91.5267 88.4697 91.7988L87.1699 95H86.2139L84.9141 91.7773C84.735 91.3118 84.5703 90.7873 84.4199 90.2036V95H83.2651V89.0596H84.9355L86.2246 92.207C86.3392 92.4971 86.4896 93.0252 86.6758 93.7915ZM95.6616 95L95.4092 94.1729H95.3662C95.0798 94.5345 94.7915 94.7816 94.5015 94.9141C94.2114 95.043 93.839 95.1074 93.3843 95.1074C92.8006 95.1074 92.3441 94.9499 92.0146 94.6348C91.6888 94.3197 91.5259 93.8739 91.5259 93.2974C91.5259 92.6851 91.7533 92.2231 92.208 91.9116C92.6628 91.6001 93.3556 91.43 94.2866 91.4014L95.3125 91.3691V91.0522C95.3125 90.6727 95.223 90.3898 95.0439 90.2036C94.8685 90.0138 94.5946 89.9189 94.2222 89.9189C93.9178 89.9189 93.626 89.9637 93.3467 90.0532C93.0674 90.1427 92.7988 90.2484 92.541 90.3701L92.1328 89.4678C92.4551 89.2995 92.8078 89.1724 93.1909 89.0864C93.5741 88.9969 93.9357 88.9521 94.2759 88.9521C95.0314 88.9521 95.6007 89.1169 95.9839 89.4463C96.3706 89.7757 96.564 90.2931 96.564 90.9985V95H95.6616ZM93.7817 94.1406C94.2401 94.1406 94.6071 94.0135 94.8828 93.7593C95.1621 93.5015 95.3018 93.1416 95.3018 92.6797V92.1641L94.5391 92.1963C93.9447 92.2178 93.5114 92.318 93.2393 92.4971C92.9707 92.6725 92.8364 92.9429 92.8364 93.3081C92.8364 93.5731 92.9152 93.779 93.0728 93.9258C93.2303 94.069 93.4666 94.1406 93.7817 94.1406ZM100.721 95.1074C99.8224 95.1074 99.1385 94.846 98.6694 94.3232C98.2039 93.7969 97.9712 93.0431 97.9712 92.062C97.9712 91.063 98.2147 90.2949 98.7017 89.7578C99.1922 89.2207 99.8994 88.9521 100.823 88.9521C101.45 88.9521 102.014 89.0685 102.515 89.3013L102.134 90.3164C101.6 90.1087 101.16 90.0049 100.812 90.0049C99.7848 90.0049 99.271 90.687 99.271 92.0513C99.271 92.7173 99.3981 93.2186 99.6523 93.5552C99.9102 93.8882 100.286 94.0547 100.78 94.0547C101.342 94.0547 101.874 93.915 102.375 93.6357V94.7368C102.15 94.8693 101.908 94.9642 101.65 95.0215C101.396 95.0788 101.086 95.1074 100.721 95.1074ZM108.235 89.0596V90.0479H106.302V95H105.034V90.0479H103.101V89.0596H108.235ZM111.974 95.1074C111.05 95.1074 110.326 94.8389 109.804 94.3018C109.285 93.7611 109.025 93.0181 109.025 92.0728C109.025 91.1024 109.267 90.3397 109.75 89.7847C110.233 89.2297 110.898 88.9521 111.743 88.9521C112.527 88.9521 113.146 89.1903 113.601 89.6665C114.056 90.1427 114.283 90.798 114.283 91.6323V92.3145H110.325C110.343 92.891 110.498 93.335 110.792 93.6465C111.086 93.9544 111.499 94.1084 112.033 94.1084C112.384 94.1084 112.709 94.0762 113.01 94.0117C113.315 93.9437 113.64 93.8327 113.988 93.6787V94.7046C113.68 94.8514 113.368 94.9552 113.053 95.0161C112.738 95.077 112.378 95.1074 111.974 95.1074ZM111.743 89.9082C111.342 89.9082 111.019 90.0353 110.776 90.2896C110.536 90.5438 110.393 90.9144 110.346 91.4014H113.042C113.035 90.9108 112.917 90.5402 112.688 90.2896C112.459 90.0353 112.144 89.9082 111.743 89.9082ZM118.73 95.1074C117.979 95.1074 117.395 94.8371 116.979 94.2964H116.904C116.954 94.7977 116.979 95.1021 116.979 95.2095V97.6426H115.717V89.0596H116.738C116.766 89.1706 116.826 89.4355 116.915 89.8545H116.979C117.373 89.2529 117.964 88.9521 118.752 88.9521C119.493 88.9521 120.07 89.2207 120.481 89.7578C120.897 90.2949 121.104 91.0487 121.104 92.019C121.104 92.9894 120.893 93.7467 120.471 94.291C120.052 94.8353 119.472 95.1074 118.73 95.1074ZM118.424 89.9834C117.923 89.9834 117.556 90.1302 117.323 90.4238C117.094 90.7174 116.979 91.1865 116.979 91.8311V92.019C116.979 92.7424 117.094 93.2669 117.323 93.5928C117.552 93.915 117.927 94.0762 118.446 94.0762C118.883 94.0762 119.219 93.8971 119.456 93.5391C119.692 93.181 119.81 92.6707 119.81 92.0083C119.81 91.3423 119.692 90.8392 119.456 90.499C119.223 90.1553 118.879 89.9834 118.424 89.9834ZM127.84 92.019C127.84 92.9894 127.591 93.7467 127.093 94.291C126.596 94.8353 125.903 95.1074 125.015 95.1074C124.46 95.1074 123.969 94.9821 123.543 94.7314C123.117 94.4808 122.789 94.1209 122.56 93.6519C122.331 93.1828 122.216 92.6385 122.216 92.019C122.216 91.0558 122.463 90.3039 122.958 89.7632C123.452 89.2225 124.148 88.9521 125.047 88.9521C125.906 88.9521 126.587 89.2297 127.088 89.7847C127.589 90.3361 127.84 91.0809 127.84 92.019ZM123.516 92.019C123.516 93.3905 124.023 94.0762 125.036 94.0762C126.039 94.0762 126.54 93.3905 126.54 92.019C126.54 90.6619 126.035 89.9834 125.025 89.9834C124.495 89.9834 124.111 90.1589 123.871 90.5098C123.634 90.8607 123.516 91.3638 123.516 92.019ZM134.452 90.5796C134.452 91.2814 134.042 91.7057 133.222 91.8525V91.8955C133.68 91.9492 134.031 92.0942 134.274 92.3306C134.518 92.5669 134.64 92.873 134.64 93.249C134.64 93.8112 134.425 94.2445 133.995 94.5488C133.569 94.8496 132.948 95 132.131 95H129.295V89.0596H132.121C133.675 89.0596 134.452 89.5662 134.452 90.5796ZM133.345 93.1738C133.345 92.8874 133.234 92.6851 133.012 92.5669C132.79 92.4451 132.457 92.3843 132.013 92.3843H130.558V94.0654H132.045C132.912 94.0654 133.345 93.7682 133.345 93.1738ZM133.189 90.687C133.189 90.4507 133.096 90.2806 132.91 90.1768C132.728 90.0693 132.454 90.0156 132.088 90.0156H130.558V91.4443H131.9C132.323 91.4443 132.643 91.3906 132.862 91.2832C133.08 91.1722 133.189 90.9735 133.189 90.687ZM75.1226 110H73.6133L70.3799 106.02V110H69.0962V102.147H70.3799V105.95L73.5596 102.147H74.9668L71.7979 105.939L75.1226 110ZM77.2388 104.06V107.105C77.2388 107.459 77.2101 107.98 77.1528 108.668L80.1338 104.06H81.6753V110H80.4614V107.008C80.4614 106.844 80.4704 106.577 80.4883 106.208C80.5098 105.839 80.5277 105.571 80.542 105.402L77.5718 110H76.0303V104.06H77.2388ZM86.0688 110.107C85.145 110.107 84.4217 109.839 83.8989 109.302C83.3797 108.761 83.1201 108.018 83.1201 107.073C83.1201 106.102 83.3618 105.34 83.8452 104.785C84.3286 104.23 84.9928 103.952 85.8379 103.952C86.6221 103.952 87.2415 104.19 87.6963 104.667C88.151 105.143 88.3784 105.798 88.3784 106.632V107.314H84.4199C84.4378 107.891 84.5936 108.335 84.8872 108.646C85.1808 108.954 85.5944 109.108 86.1279 109.108C86.4788 109.108 86.8047 109.076 87.1055 109.012C87.4098 108.944 87.7357 108.833 88.083 108.679V109.705C87.7751 109.851 87.4635 109.955 87.1484 110.016C86.8333 110.077 86.4735 110.107 86.0688 110.107ZM85.8379 104.908C85.4368 104.908 85.1146 105.035 84.8711 105.29C84.6312 105.544 84.488 105.914 84.4414 106.401H87.1377C87.1305 105.911 87.0124 105.54 86.7832 105.29C86.554 105.035 86.2389 104.908 85.8379 104.908ZM94.9688 105.58C94.9688 106.281 94.5588 106.706 93.7388 106.853V106.896C94.1971 106.949 94.548 107.094 94.7915 107.331C95.035 107.567 95.1567 107.873 95.1567 108.249C95.1567 108.811 94.9419 109.244 94.5122 109.549C94.0861 109.85 93.4648 110 92.6484 110H89.8125V104.06H92.6377C94.1917 104.06 94.9688 104.566 94.9688 105.58ZM93.8623 108.174C93.8623 107.887 93.7513 107.685 93.5293 107.567C93.3073 107.445 92.9743 107.384 92.5303 107.384H91.0747V109.065H92.5625C93.429 109.065 93.8623 108.768 93.8623 108.174ZM93.7065 105.687C93.7065 105.451 93.6134 105.281 93.4272 105.177C93.2446 105.069 92.9707 105.016 92.6055 105.016H91.0747V106.444H92.4175C92.84 106.444 93.1605 106.391 93.3789 106.283C93.5973 106.172 93.7065 105.973 93.7065 105.687ZM100.179 110L99.9263 109.173H99.8833C99.5968 109.535 99.3086 109.782 99.0186 109.914C98.7285 110.043 98.3561 110.107 97.9014 110.107C97.3177 110.107 96.8612 109.95 96.5317 109.635C96.2059 109.32 96.043 108.874 96.043 108.297C96.043 107.685 96.2703 107.223 96.7251 106.912C97.1799 106.6 97.8727 106.43 98.8037 106.401L99.8296 106.369V106.052C99.8296 105.673 99.7401 105.39 99.561 105.204C99.3856 105.014 99.1117 104.919 98.7393 104.919C98.4349 104.919 98.1431 104.964 97.8638 105.053C97.5845 105.143 97.3159 105.248 97.0581 105.37L96.6499 104.468C96.9722 104.299 97.3249 104.172 97.708 104.086C98.0911 103.997 98.4528 103.952 98.793 103.952C99.5485 103.952 100.118 104.117 100.501 104.446C100.888 104.776 101.081 105.293 101.081 105.999V110H100.179ZM98.2988 109.141C98.7572 109.141 99.1242 109.014 99.3999 108.759C99.6792 108.501 99.8188 108.142 99.8188 107.68V107.164L99.0562 107.196C98.4618 107.218 98.0285 107.318 97.7563 107.497C97.4878 107.673 97.3535 107.943 97.3535 108.308C97.3535 108.573 97.4323 108.779 97.5898 108.926C97.7474 109.069 97.9837 109.141 98.2988 109.141Z" fill="#303030"/>
<path d="M110.789 39.0547H107.68V37.6641H110.789V34.4766H112.195V37.6641H115.312V39.0547H112.195V42.2266H110.789V39.0547Z" fill="#FF6C00"/>
</svg>
