<svg width="170" height="133" viewBox="0 0 170 133" fill="none" xmlns="http://www.w3.org/2000/svg">
<rect width="170" height="133" fill="#F7F7F7"/>
<path d="M56.6969 65H50.36V47.6504C50.36 47.1719 50.3668 46.584 50.3805 45.8867C50.3941 45.1758 50.4146 44.4512 50.442 43.7129C50.4693 42.9609 50.4967 42.2842 50.524 41.6826C50.3736 41.8604 50.066 42.168 49.6012 42.6055C49.15 43.0293 48.7262 43.4121 48.3297 43.7539L44.8844 46.5225L41.8287 42.708L51.4879 35.0176H56.6969V65ZM87.959 50.0088C87.959 52.4287 87.7676 54.5889 87.3848 56.4893C87.0156 58.3896 86.4141 60.0029 85.5801 61.3291C84.7598 62.6553 83.6797 63.667 82.3398 64.3643C81 65.0615 79.373 65.4102 77.459 65.4102C75.0527 65.4102 73.0772 64.8018 71.5322 63.585C69.9873 62.3545 68.8457 60.5908 68.1074 58.2939C67.3691 55.9834 67 53.2217 67 50.0088C67 46.7686 67.335 44 68.0049 41.7031C68.6885 39.3926 69.7959 37.6221 71.3272 36.3916C72.8584 35.1611 74.9023 34.5459 77.459 34.5459C79.8516 34.5459 81.8203 35.1611 83.3652 36.3916C84.9238 37.6084 86.0791 39.3721 86.8311 41.6826C87.583 43.9795 87.959 46.7549 87.959 50.0088ZM73.2959 50.0088C73.2959 52.292 73.4189 54.1992 73.665 55.7305C73.9248 57.248 74.3555 58.3896 74.957 59.1553C75.5586 59.9209 76.3926 60.3037 77.459 60.3037C78.5117 60.3037 79.3389 59.9277 79.9404 59.1758C80.5557 58.4102 80.9932 57.2686 81.2529 55.751C81.5127 54.2197 81.6426 52.3057 81.6426 50.0088C81.6426 47.7256 81.5127 45.8184 81.2529 44.2871C80.9932 42.7559 80.5557 41.6074 79.9404 40.8418C79.3389 40.0625 78.5117 39.6729 77.459 39.6729C76.3926 39.6729 75.5586 40.0625 74.957 40.8418C74.3555 41.6074 73.9248 42.7559 73.665 44.2871C73.4189 45.8184 73.2959 47.7256 73.2959 50.0088ZM114.094 50.0088C114.094 52.4287 113.903 54.5889 113.52 56.4893C113.151 58.3896 112.549 60.0029 111.715 61.3291C110.895 62.6553 109.815 63.667 108.475 64.3643C107.135 65.0615 105.508 65.4102 103.594 65.4102C101.188 65.4102 99.2123 64.8018 97.6674 63.585C96.1225 62.3545 94.9809 60.5908 94.2426 58.2939C93.5043 55.9834 93.1352 53.2217 93.1352 50.0088C93.1352 46.7686 93.4701 44 94.14 41.7031C94.8236 39.3926 95.9311 37.6221 97.4623 36.3916C98.9936 35.1611 101.038 34.5459 103.594 34.5459C105.987 34.5459 107.955 35.1611 109.5 36.3916C111.059 37.6084 112.214 39.3721 112.966 41.6826C113.718 43.9795 114.094 46.7549 114.094 50.0088ZM99.4311 50.0088C99.4311 52.292 99.5541 54.1992 99.8002 55.7305C100.06 57.248 100.491 58.3896 101.092 59.1553C101.694 59.9209 102.528 60.3037 103.594 60.3037C104.647 60.3037 105.474 59.9277 106.076 59.1758C106.691 58.4102 107.128 57.2686 107.388 55.751C107.648 54.2197 107.778 52.3057 107.778 50.0088C107.778 47.7256 107.648 45.8184 107.388 44.2871C107.128 42.7559 106.691 41.6074 106.076 40.8418C105.474 40.0625 104.647 39.6729 103.594 39.6729C102.528 39.6729 101.694 40.0625 101.092 40.8418C100.491 41.6074 100.06 42.7559 99.8002 44.2871C99.5541 45.8184 99.4311 47.7256 99.4311 50.0088Z" fill="#303030"/>
<path d="M124.789 39.0547H121.68V37.6641H124.789V34.4766H126.195V37.6641H129.312V39.0547H126.195V42.2266H124.789V39.0547Z" fill="#FF6C00"/>
<path d="M28.5498 95H27.2607V88.2485H23.7964V95H22.5127V87.1475H28.5498V95ZM35.7578 92.019C35.7578 92.9894 35.509 93.7467 35.0112 94.291C34.5135 94.8353 33.8206 95.1074 32.9326 95.1074C32.3776 95.1074 31.887 94.9821 31.4609 94.7314C31.0348 94.4808 30.7072 94.1209 30.478 93.6519C30.2489 93.1828 30.1343 92.6385 30.1343 92.019C30.1343 91.0558 30.3813 90.3039 30.8755 89.7632C31.3696 89.2225 32.0661 88.9521 32.9648 88.9521C33.8242 88.9521 34.5046 89.2297 35.0059 89.7847C35.5072 90.3361 35.7578 91.0809 35.7578 92.019ZM31.4341 92.019C31.4341 93.3905 31.9408 94.0762 32.9541 94.0762C33.9567 94.0762 34.458 93.3905 34.458 92.019C34.458 90.6619 33.9531 89.9834 32.9434 89.9834C32.4134 89.9834 32.0285 90.1589 31.7886 90.5098C31.5522 90.8607 31.4341 91.3638 31.4341 92.019ZM42.9121 97.1001H41.7358V95H37.6646V97.1001H36.499V94.0225H36.9824C37.4049 93.4173 37.7397 92.6868 37.9868 91.8311C38.2375 90.9717 38.3861 90.0479 38.4326 89.0596H42.042V94.0225H42.9121V97.1001ZM40.8013 94.0225V90.0264H39.5229C39.4549 90.764 39.3117 91.4909 39.0933 92.207C38.8784 92.9232 38.6152 93.5283 38.3037 94.0225H40.8013ZM47.73 95L47.4775 94.1729H47.4346C47.1481 94.5345 46.8599 94.7816 46.5698 94.9141C46.2798 95.043 45.9074 95.1074 45.4526 95.1074C44.869 95.1074 44.4124 94.9499 44.083 94.6348C43.7572 94.3197 43.5942 93.8739 43.5942 93.2974C43.5942 92.6851 43.8216 92.2231 44.2764 91.9116C44.7311 91.6001 45.424 91.43 46.355 91.4014L47.3809 91.3691V91.0522C47.3809 90.6727 47.2913 90.3898 47.1123 90.2036C46.9368 90.0138 46.6629 89.9189 46.2905 89.9189C45.9862 89.9189 45.6943 89.9637 45.415 90.0532C45.1357 90.1427 44.8672 90.2484 44.6094 90.3701L44.2012 89.4678C44.5234 89.2995 44.8761 89.1724 45.2593 89.0864C45.6424 88.9969 46.0041 88.9521 46.3442 88.9521C47.0998 88.9521 47.6691 89.1169 48.0522 89.4463C48.439 89.7757 48.6323 90.2931 48.6323 90.9985V95H47.73ZM45.8501 94.1406C46.3084 94.1406 46.6755 94.0135 46.9512 93.7593C47.2305 93.5015 47.3701 93.1416 47.3701 92.6797V92.1641L46.6074 92.1963C46.013 92.2178 45.5798 92.318 45.3076 92.4971C45.0391 92.6725 44.9048 92.9429 44.9048 93.3081C44.9048 93.5731 44.9836 93.779 45.1411 93.9258C45.2987 94.069 45.535 94.1406 45.8501 94.1406ZM53.4072 95.1074C52.6553 95.1074 52.0716 94.8371 51.6562 94.2964H51.5811C51.6312 94.7977 51.6562 95.1021 51.6562 95.2095V97.6426H50.394V89.0596H51.4146C51.4432 89.1706 51.5023 89.4355 51.5918 89.8545H51.6562C52.0501 89.2529 52.641 88.9521 53.4287 88.9521C54.1699 88.9521 54.7464 89.2207 55.1582 89.7578C55.5736 90.2949 55.7812 91.0487 55.7812 92.019C55.7812 92.9894 55.57 93.7467 55.1475 94.291C54.7285 94.8353 54.1484 95.1074 53.4072 95.1074ZM53.1011 89.9834C52.5998 89.9834 52.2327 90.1302 52 90.4238C51.7708 90.7174 51.6562 91.1865 51.6562 91.8311V92.019C51.6562 92.7424 51.7708 93.2669 52 93.5928C52.2292 93.915 52.6034 94.0762 53.1226 94.0762C53.5594 94.0762 53.896 93.8971 54.1323 93.5391C54.3687 93.181 54.4868 92.6707 54.4868 92.0083C54.4868 91.3423 54.3687 90.8392 54.1323 90.499C53.8996 90.1553 53.5558 89.9834 53.1011 89.9834ZM60.9321 89.0596H62.3179L59.8633 91.9224L62.5273 95H61.0771L58.5098 91.9868V95H57.2476V89.0596H58.5098V91.9438L60.9321 89.0596ZM68.7793 92.019C68.7793 92.9894 68.5304 93.7467 68.0327 94.291C67.535 94.8353 66.8421 95.1074 65.9541 95.1074C65.3991 95.1074 64.9085 94.9821 64.4824 94.7314C64.0563 94.4808 63.7287 94.1209 63.4995 93.6519C63.2703 93.1828 63.1558 92.6385 63.1558 92.019C63.1558 91.0558 63.4028 90.3039 63.897 89.7632C64.3911 89.2225 65.0876 88.9521 65.9863 88.9521C66.8457 88.9521 67.526 89.2297 68.0273 89.7847C68.5286 90.3361 68.7793 91.0809 68.7793 92.019ZM64.4556 92.019C64.4556 93.3905 64.9622 94.0762 65.9756 94.0762C66.9782 94.0762 67.4795 93.3905 67.4795 92.019C67.4795 90.6619 66.9746 89.9834 65.9648 89.9834C65.4349 89.9834 65.05 90.1589 64.8101 90.5098C64.5737 90.8607 64.4556 91.3638 64.4556 92.019ZM75.3911 90.5796C75.3911 91.2814 74.9811 91.7057 74.1611 91.8525V91.8955C74.6195 91.9492 74.9704 92.0942 75.2139 92.3306C75.4574 92.5669 75.5791 92.873 75.5791 93.249C75.5791 93.8112 75.3643 94.2445 74.9346 94.5488C74.5085 94.8496 73.8872 95 73.0708 95H70.2349V89.0596H73.0601C74.6141 89.0596 75.3911 89.5662 75.3911 90.5796ZM74.2847 93.1738C74.2847 92.8874 74.1737 92.6851 73.9517 92.5669C73.7297 92.4451 73.3966 92.3843 72.9526 92.3843H71.4971V94.0654H72.9849C73.8514 94.0654 74.2847 93.7682 74.2847 93.1738ZM74.1289 90.687C74.1289 90.4507 74.0358 90.2806 73.8496 90.1768C73.667 90.0693 73.3931 90.0156 73.0278 90.0156H71.4971V91.4443H72.8398C73.2624 91.4443 73.5828 91.3906 73.8013 91.2832C74.0197 91.1722 74.1289 90.9735 74.1289 90.687ZM84.9355 89.0596V95H83.668V90.0586H81.0039V95H79.7417V89.0596H84.9355ZM92.0146 92.019C92.0146 92.9894 91.7658 93.7467 91.2681 94.291C90.7703 94.8353 90.0775 95.1074 89.1895 95.1074C88.6344 95.1074 88.1439 94.9821 87.7178 94.7314C87.2917 94.4808 86.964 94.1209 86.7349 93.6519C86.5057 93.1828 86.3911 92.6385 86.3911 92.019C86.3911 91.0558 86.6382 90.3039 87.1323 89.7632C87.6265 89.2225 88.3229 88.9521 89.2217 88.9521C90.0811 88.9521 90.7614 89.2297 91.2627 89.7847C91.764 90.3361 92.0146 91.0809 92.0146 92.019ZM87.6909 92.019C87.6909 93.3905 88.1976 94.0762 89.2109 94.0762C90.2135 94.0762 90.7148 93.3905 90.7148 92.019C90.7148 90.6619 90.21 89.9834 89.2002 89.9834C88.6702 89.9834 88.2853 90.1589 88.0454 90.5098C87.8091 90.8607 87.6909 91.3638 87.6909 92.019ZM95.8657 95.1074C94.967 95.1074 94.283 94.846 93.814 94.3232C93.3485 93.7969 93.1157 93.0431 93.1157 92.062C93.1157 91.063 93.3592 90.2949 93.8462 89.7578C94.3368 89.2207 95.0439 88.9521 95.9678 88.9521C96.5944 88.9521 97.1584 89.0685 97.6597 89.3013L97.2783 90.3164C96.7448 90.1087 96.3044 90.0049 95.957 90.0049C94.9294 90.0049 94.4155 90.687 94.4155 92.0513C94.4155 92.7173 94.5426 93.2186 94.7969 93.5552C95.0547 93.8882 95.4307 94.0547 95.9248 94.0547C96.487 94.0547 97.0187 93.915 97.52 93.6357V94.7368C97.2944 94.8693 97.0527 94.9642 96.7949 95.0215C96.5407 95.0788 96.231 95.1074 95.8657 95.1074ZM103.38 89.0596V90.0479H101.446V95H100.179V90.0479H98.2451V89.0596H103.38ZM109.793 92.019C109.793 92.9894 109.544 93.7467 109.046 94.291C108.549 94.8353 107.856 95.1074 106.968 95.1074C106.413 95.1074 105.922 94.9821 105.496 94.7314C105.07 94.4808 104.742 94.1209 104.513 93.6519C104.284 93.1828 104.169 92.6385 104.169 92.019C104.169 91.0558 104.417 90.3039 104.911 89.7632C105.405 89.2225 106.101 88.9521 107 88.9521C107.859 88.9521 108.54 89.2297 109.041 89.7847C109.542 90.3361 109.793 91.0809 109.793 92.019ZM105.469 92.019C105.469 93.3905 105.976 94.0762 106.989 94.0762C107.992 94.0762 108.493 93.3905 108.493 92.019C108.493 90.6619 107.988 89.9834 106.979 89.9834C106.449 89.9834 106.064 90.1589 105.824 90.5098C105.587 90.8607 105.469 91.3638 105.469 92.019ZM111.855 95H110.443L112.097 92.5669C111.696 92.4523 111.381 92.2482 111.152 91.9546C110.923 91.6574 110.808 91.2904 110.808 90.8535C110.808 90.2913 111.009 89.8527 111.41 89.5376C111.811 89.2189 112.359 89.0596 113.053 89.0596H115.76V95H114.493V92.7119H113.295L111.855 95ZM112.038 90.8643C112.038 91.1686 112.153 91.3978 112.382 91.5518C112.615 91.7021 112.926 91.7773 113.316 91.7773H114.493V90.0156H113.118C112.774 90.0156 112.507 90.089 112.317 90.2358C112.131 90.3826 112.038 90.5921 112.038 90.8643ZM118.827 89.0596V91.4443H121.625V89.0596H122.888V95H121.625V92.438H118.827V95H117.565V89.0596H118.827ZM125.96 89.0596V91.4443H128.758V89.0596H130.021V95H128.758V92.438H125.96V95H124.698V89.0596H125.96ZM133.093 91.4336H134.296C135.127 91.4336 135.741 91.5768 136.138 91.8633C136.536 92.1497 136.734 92.5794 136.734 93.1523C136.734 93.7646 136.527 94.2266 136.111 94.5381C135.7 94.846 135.094 95 134.296 95H131.831V89.0596H133.093V91.4336ZM135.483 93.1846C135.483 92.8874 135.372 92.6797 135.15 92.5615C134.931 92.4434 134.616 92.3843 134.205 92.3843H133.093V94.0654H134.043C134.552 94.0654 134.919 93.9938 135.145 93.8506C135.37 93.7074 135.483 93.4854 135.483 93.1846ZM138.937 95H137.669V89.0596H138.937V95ZM144.157 93.7915L144.227 93.5337C144.374 93.0002 144.501 92.5902 144.608 92.3037L145.94 89.0596H147.622V95L146.456 95V90.2036L146.359 90.5259C146.198 91.1024 146.062 91.5267 145.951 91.7988L144.651 95H143.695L142.396 91.7773C142.216 91.3118 142.052 90.7873 141.901 90.2036V95H140.747V89.0596H142.417L143.706 92.207C143.821 92.4971 143.971 93.0252 144.157 93.7915ZM62.3179 104.06H63.7036L61.249 106.922L63.9131 110H62.4629L59.8955 106.987V110H58.6333L58.6333 104.06H59.8955L59.8955 106.944L62.3179 104.06ZM69.7783 110H68.5054V105.048H66.8672C66.7669 106.323 66.6309 107.318 66.459 108.034C66.2907 108.75 66.0687 109.273 65.793 109.603C65.5208 109.932 65.1663 110.097 64.7295 110.097C64.4538 110.097 64.2228 110.057 64.0366 109.979V108.99C64.1691 109.04 64.3016 109.065 64.4341 109.065C64.7993 109.065 65.0858 108.655 65.2935 107.835C65.5047 107.012 65.6694 105.753 65.7876 104.06H69.7783V110ZM72.7969 104.06V107.105C72.7969 107.459 72.7682 107.98 72.7109 108.668L75.6919 104.06H77.2334V110H76.0195V107.008C76.0195 106.844 76.0285 106.577 76.0464 106.208C76.0679 105.839 76.0858 105.571 76.1001 105.402L73.1299 110H71.5884V104.06H72.7969ZM81.627 110.107C80.7031 110.107 79.9798 109.839 79.457 109.302C78.9378 108.761 78.6782 108.018 78.6782 107.073C78.6782 106.102 78.9199 105.34 79.4033 104.785C79.8867 104.23 80.5509 103.952 81.396 103.952C82.1802 103.952 82.7996 104.19 83.2544 104.667C83.7091 105.143 83.9365 105.798 83.9365 106.632V107.314H79.978C79.9959 107.891 80.1517 108.335 80.4453 108.646C80.7389 108.954 81.1525 109.108 81.686 109.108C82.0369 109.108 82.3628 109.076 82.6636 109.012C82.9679 108.944 83.2938 108.833 83.6411 108.679V109.705C83.3332 109.851 83.0216 109.955 82.7065 110.016C82.3914 110.077 82.0316 110.107 81.627 110.107ZM81.396 104.908C80.995 104.908 80.6727 105.035 80.4292 105.29C80.1893 105.544 80.0461 105.914 79.9995 106.401H82.6958C82.6886 105.911 82.5705 105.54 82.3413 105.29C82.1121 105.035 81.797 104.908 81.396 104.908ZM86.6328 104.06V106.444H89.4312V104.06H90.6934V110H89.4312V107.438H86.6328V110H85.3706V104.06H86.6328ZM96.9668 104.06V105.048H95.0332V110H93.7656V105.048H91.832V104.06H96.9668ZM101.828 110L101.575 109.173H101.532C101.246 109.535 100.958 109.782 100.667 109.914C100.377 110.043 100.005 110.107 99.5503 110.107C98.9666 110.107 98.5101 109.95 98.1807 109.635C97.8548 109.32 97.6919 108.874 97.6919 108.297C97.6919 107.685 97.9193 107.223 98.374 106.912C98.8288 106.6 99.5216 106.43 100.453 106.401L101.479 106.369V106.052C101.479 105.673 101.389 105.39 101.21 105.204C101.035 105.014 100.761 104.919 100.388 104.919C100.084 104.919 99.792 104.964 99.5127 105.053C99.2334 105.143 98.9648 105.248 98.707 105.37L98.2988 104.468C98.6211 104.299 98.9738 104.172 99.3569 104.086C99.7401 103.997 100.102 103.952 100.442 103.952C101.197 103.952 101.767 104.117 102.15 104.446C102.537 104.776 102.73 105.293 102.73 105.999V110H101.828ZM99.9478 109.141C100.406 109.141 100.773 109.014 101.049 108.759C101.328 108.501 101.468 108.142 101.468 107.68V107.164L100.705 107.196C100.111 107.218 99.6774 107.318 99.4053 107.497C99.1367 107.673 99.0024 107.943 99.0024 108.308C99.0024 108.573 99.0812 108.779 99.2388 108.926C99.3963 109.069 99.6326 109.141 99.9478 109.141ZM107.902 108.792L107.972 108.534C108.119 108 108.246 107.59 108.354 107.304L109.686 104.06H111.367V110H110.201V105.204L110.104 105.526C109.943 106.102 109.807 106.527 109.696 106.799L108.396 110H107.44L106.141 106.777C105.962 106.312 105.797 105.787 105.646 105.204V110H104.492V104.06H106.162L107.451 107.207C107.566 107.497 107.716 108.025 107.902 108.792Z" fill="#303030"/>
</svg>
