<svg width="170" height="133" viewBox="0 0 170 133" fill="none" xmlns="http://www.w3.org/2000/svg">
<rect width="170" height="133" fill="#F7F7F7"/>
<path d="M65.0066 45.8457C66.8387 45.8457 68.4656 46.1943 69.8875 46.8916C71.323 47.5889 72.451 48.6143 73.2713 49.9678C74.0916 51.3213 74.5018 52.9893 74.5018 54.9717C74.5018 57.1318 74.0506 58.998 73.1482 60.5703C72.2596 62.1289 70.9266 63.3252 69.1492 64.1592C67.3855 64.9932 65.1844 65.4102 62.5457 65.4102C60.9734 65.4102 59.49 65.2734 58.0955 65C56.7146 64.7402 55.5047 64.3369 54.4656 63.79V58.3145C55.5047 58.8613 56.7488 59.3262 58.198 59.709C59.6609 60.0781 61.035 60.2627 62.3201 60.2627C63.5779 60.2627 64.6375 60.0986 65.4988 59.7705C66.3602 59.4287 67.0096 58.9092 67.4471 58.2119C67.8982 57.501 68.1238 56.5986 68.1238 55.5049C68.1238 54.042 67.6316 52.9209 66.6473 52.1416C65.6629 51.3623 64.1521 50.9727 62.115 50.9727C61.3357 50.9727 60.5223 51.0479 59.6746 51.1982C58.8406 51.3486 58.1434 51.499 57.5828 51.6494L55.0604 50.2959L56.1883 35.0176H72.451V40.3906H61.7459L61.1922 46.2764C61.657 46.1807 62.1629 46.085 62.7098 45.9893C63.2566 45.8936 64.0223 45.8457 65.0066 45.8457ZM101.027 50.0088C101.027 52.4287 100.835 54.5889 100.452 56.4893C100.083 58.3896 99.4816 60.0029 98.6477 61.3291C97.8273 62.6553 96.7473 63.667 95.4074 64.3643C94.0676 65.0615 92.4406 65.4102 90.5266 65.4102C88.1203 65.4102 86.1447 64.8018 84.5998 63.585C83.0549 62.3545 81.9133 60.5908 81.175 58.2939C80.4367 55.9834 80.0676 53.2217 80.0676 50.0088C80.0676 46.7686 80.4025 44 81.0725 41.7031C81.7561 39.3926 82.8635 37.6221 84.3947 36.3916C85.926 35.1611 87.9699 34.5459 90.5266 34.5459C92.9191 34.5459 94.8879 35.1611 96.4328 36.3916C97.9914 37.6084 99.1467 39.3721 99.8986 41.6826C100.651 43.9795 101.027 46.7549 101.027 50.0088ZM86.3635 50.0088C86.3635 52.292 86.4865 54.1992 86.7326 55.7305C86.9924 57.248 87.423 58.3896 88.0246 59.1553C88.6262 59.9209 89.4602 60.3037 90.5266 60.3037C91.5793 60.3037 92.4064 59.9277 93.008 59.1758C93.6232 58.4102 94.0607 57.2686 94.3205 55.751C94.5803 54.2197 94.7102 52.3057 94.7102 50.0088C94.7102 47.7256 94.5803 45.8184 94.3205 44.2871C94.0607 42.7559 93.6232 41.6074 93.008 40.8418C92.4064 40.0625 91.5793 39.6729 90.5266 39.6729C89.4602 39.6729 88.6262 40.0625 88.0246 40.8418C87.423 41.6074 86.9924 42.7559 86.7326 44.2871C86.4865 45.8184 86.3635 47.7256 86.3635 50.0088Z" fill="#303030"/>
<path d="M35.0381 95H33.749V91.4604H30.1289V95H28.8452V87.1475H30.1289V90.3594H33.749V87.1475H35.0381V95ZM40.6885 95L40.436 94.1729H40.3931C40.1066 94.5345 39.8184 94.7816 39.5283 94.9141C39.2383 95.043 38.8659 95.1074 38.4111 95.1074C37.8275 95.1074 37.3709 94.9499 37.0415 94.6348C36.7157 94.3197 36.5527 93.8739 36.5527 93.2974C36.5527 92.6851 36.7801 92.2231 37.2349 91.9116C37.6896 91.6001 38.3825 91.43 39.3135 91.4014L40.3394 91.3691V91.0522C40.3394 90.6727 40.2498 90.3898 40.0708 90.2036C39.8953 90.0138 39.6214 89.9189 39.249 89.9189C38.9447 89.9189 38.6528 89.9637 38.3735 90.0532C38.0942 90.1427 37.8257 90.2484 37.5679 90.3701L37.1597 89.4678C37.4819 89.2995 37.8346 89.1724 38.2178 89.0864C38.6009 88.9969 38.9626 88.9521 39.3027 88.9521C40.0583 88.9521 40.6276 89.1169 41.0107 89.4463C41.3975 89.7757 41.5908 90.2931 41.5908 90.9985V95H40.6885ZM38.8086 94.1406C39.2669 94.1406 39.634 94.0135 39.9097 93.7593C40.189 93.5015 40.3286 93.1416 40.3286 92.6797V92.1641L39.5659 92.1963C38.9715 92.2178 38.5382 92.318 38.2661 92.4971C37.9976 92.6725 37.8633 92.9429 37.8633 93.3081C37.8633 93.5731 37.9421 93.779 38.0996 93.9258C38.2572 94.069 38.4935 94.1406 38.8086 94.1406ZM47.1929 89.0596V90.0479H44.6147V95H43.3525V89.0596H47.1929ZM51.3501 95.1074C50.5981 95.1074 50.0145 94.8371 49.5991 94.2964H49.5239C49.5741 94.7977 49.5991 95.1021 49.5991 95.2095V97.6426H48.3369V89.0596H49.3574C49.3861 89.1706 49.4451 89.4355 49.5347 89.8545H49.5991C49.993 89.2529 50.5838 88.9521 51.3716 88.9521C52.1128 88.9521 52.6893 89.2207 53.1011 89.7578C53.5164 90.2949 53.7241 91.0487 53.7241 92.019C53.7241 92.9894 53.5129 93.7467 53.0903 94.291C52.6714 94.8353 52.0913 95.1074 51.3501 95.1074ZM51.0439 89.9834C50.5426 89.9834 50.1756 90.1302 49.9429 90.4238C49.7137 90.7174 49.5991 91.1865 49.5991 91.8311V92.019C49.5991 92.7424 49.7137 93.2669 49.9429 93.5928C50.172 93.915 50.5462 94.0762 51.0654 94.0762C51.5023 94.0762 51.8389 93.8971 52.0752 93.5391C52.3115 93.181 52.4297 92.6707 52.4297 92.0083C52.4297 91.3423 52.3115 90.8392 52.0752 90.499C51.8424 90.1553 51.4987 89.9834 51.0439 89.9834ZM58.9072 95L58.6548 94.1729H58.6118C58.3254 94.5345 58.0371 94.7816 57.7471 94.9141C57.457 95.043 57.0846 95.1074 56.6299 95.1074C56.0462 95.1074 55.5897 94.9499 55.2603 94.6348C54.9344 94.3197 54.7715 93.8739 54.7715 93.2974C54.7715 92.6851 54.9989 92.2231 55.4536 91.9116C55.9084 91.6001 56.6012 91.43 57.5322 91.4014L58.5581 91.3691V91.0522C58.5581 90.6727 58.4686 90.3898 58.2896 90.2036C58.1141 90.0138 57.8402 89.9189 57.4678 89.9189C57.1634 89.9189 56.8716 89.9637 56.5923 90.0532C56.313 90.1427 56.0444 90.2484 55.7866 90.3701L55.3784 89.4678C55.7007 89.2995 56.0534 89.1724 56.4365 89.0864C56.8197 88.9969 57.1813 88.9521 57.5215 88.9521C58.277 88.9521 58.8464 89.1169 59.2295 89.4463C59.6162 89.7757 59.8096 90.2931 59.8096 90.9985V95H58.9072ZM57.0273 94.1406C57.4857 94.1406 57.8527 94.0135 58.1284 93.7593C58.4077 93.5015 58.5474 93.1416 58.5474 92.6797V92.1641L57.7847 92.1963C57.1903 92.2178 56.757 92.318 56.4849 92.4971C56.2163 92.6725 56.082 92.9429 56.082 93.3081C56.082 93.5731 56.1608 93.779 56.3184 93.9258C56.4759 94.069 56.7122 94.1406 57.0273 94.1406ZM67.27 97.1001H66.0938V95H62.0225V97.1001H60.8569V94.0225H61.3403C61.7629 93.4173 62.0977 92.6868 62.3447 91.8311C62.5954 90.9717 62.744 90.0479 62.7905 89.0596H66.3999V94.0225H67.27V97.1001ZM65.1592 94.0225V90.0264H63.8809C63.8128 90.764 63.6696 91.4909 63.4512 92.207C63.2363 92.9232 62.9731 93.5283 62.6616 94.0225H65.1592ZM72.5391 91.4336C73.1156 91.4336 73.5399 91.3709 73.812 91.2456C74.0841 91.1167 74.2202 90.9198 74.2202 90.6548C74.2202 90.1714 73.7905 89.9297 72.9312 89.9297C72.3582 89.9297 71.7728 90.0586 71.1748 90.3164L70.7666 89.3765C71.4577 89.0936 72.2204 88.9521 73.0547 88.9521C73.7923 88.9521 74.3652 89.0882 74.7734 89.3604C75.1816 89.6289 75.3857 90.0156 75.3857 90.5205C75.3857 91.1865 75.0044 91.6234 74.2417 91.8311V91.874C74.7179 92.0029 75.0581 92.1873 75.2622 92.4272C75.4699 92.6672 75.5737 92.9644 75.5737 93.3188C75.5737 93.8631 75.3338 94.2982 74.854 94.624C74.3778 94.9463 73.7118 95.1074 72.856 95.1074C71.9214 95.1074 71.207 94.9839 70.7129 94.7368V93.6465C71.3682 93.9544 72.0467 94.1084 72.7485 94.1084C73.2534 94.1084 73.6419 94.0386 73.9141 93.8989C74.1898 93.7557 74.3276 93.5391 74.3276 93.249C74.3276 92.9518 74.1898 92.7334 73.9141 92.5938C73.6383 92.4541 73.2122 92.3843 72.6357 92.3843H71.9106V91.4336H72.5391ZM80.6602 95L80.4077 94.1729H80.3647C80.0783 94.5345 79.79 94.7816 79.5 94.9141C79.21 95.043 78.8376 95.1074 78.3828 95.1074C77.7992 95.1074 77.3426 94.9499 77.0132 94.6348C76.6873 94.3197 76.5244 93.8739 76.5244 93.2974C76.5244 92.6851 76.7518 92.2231 77.2065 91.9116C77.6613 91.6001 78.3542 91.43 79.2852 91.4014L80.311 91.3691V91.0522C80.311 90.6727 80.2215 90.3898 80.0425 90.2036C79.867 90.0138 79.5931 89.9189 79.2207 89.9189C78.9163 89.9189 78.6245 89.9637 78.3452 90.0532C78.0659 90.1427 77.7974 90.2484 77.5396 90.3701L77.1313 89.4678C77.4536 89.2995 77.8063 89.1724 78.1895 89.0864C78.5726 88.9969 78.9342 88.9521 79.2744 88.9521C80.0299 88.9521 80.5993 89.1169 80.9824 89.4463C81.3691 89.7757 81.5625 90.2931 81.5625 90.9985V95H80.6602ZM78.7803 94.1406C79.2386 94.1406 79.6056 94.0135 79.8813 93.7593C80.1606 93.5015 80.3003 93.1416 80.3003 92.6797V92.1641L79.5376 92.1963C78.9432 92.2178 78.5099 92.318 78.2378 92.4971C77.9692 92.6725 77.835 92.9429 77.835 93.3081C77.835 93.5731 77.9137 93.779 78.0713 93.9258C78.2288 94.069 78.4652 94.1406 78.7803 94.1406ZM91.4507 92.019C91.4507 92.9894 91.2018 93.7467 90.7041 94.291C90.2064 94.8353 89.5135 95.1074 88.6255 95.1074C88.0705 95.1074 87.5799 94.9821 87.1538 94.7314C86.7277 94.4808 86.4001 94.1209 86.1709 93.6519C85.9417 93.1828 85.8271 92.6385 85.8271 92.019C85.8271 91.0558 86.0742 90.3039 86.5684 89.7632C87.0625 89.2225 87.759 88.9521 88.6577 88.9521C89.5171 88.9521 90.1974 89.2297 90.6987 89.7847C91.2 90.3361 91.4507 91.0809 91.4507 92.019ZM87.127 92.019C87.127 93.3905 87.6336 94.0762 88.647 94.0762C89.6496 94.0762 90.1509 93.3905 90.1509 92.019C90.1509 90.6619 89.646 89.9834 88.6362 89.9834C88.1063 89.9834 87.7214 90.1589 87.4814 90.5098C87.2451 90.8607 87.127 91.3638 87.127 92.019ZM97.3696 89.0596V90.0479H95.436V95H94.1685V90.0479H92.2349V89.0596H97.3696ZM103.396 95H102.123V90.0479H100.485C100.385 91.3226 100.249 92.318 100.077 93.0342C99.9084 93.7503 99.6864 94.2731 99.4106 94.6025C99.1385 94.932 98.784 95.0967 98.3472 95.0967C98.0715 95.0967 97.8405 95.0573 97.6543 94.9785V93.9902C97.7868 94.0404 97.9193 94.0654 98.0518 94.0654C98.417 94.0654 98.7035 93.6554 98.9111 92.8354C99.1224 92.0119 99.2871 90.7533 99.4053 89.0596H103.396V95ZM106.415 89.0596V92.105C106.415 92.4595 106.386 92.9805 106.329 93.668L109.31 89.0596H110.851V95H109.637V92.0083C109.637 91.8436 109.646 91.5768 109.664 91.208C109.686 90.8392 109.703 90.5706 109.718 90.4023L106.748 95H105.206V89.0596H106.415ZM113.762 89.0596V91.2295C113.762 91.8382 114.077 92.1426 114.708 92.1426C115.012 92.1426 115.309 92.1014 115.599 92.019C115.889 91.9331 116.201 91.797 116.534 91.6108V89.0596H117.796V95H116.534V92.481C116.186 92.6958 115.85 92.8551 115.524 92.959C115.202 93.0592 114.849 93.1094 114.466 93.1094C113.846 93.1094 113.363 92.95 113.016 92.6313C112.668 92.3091 112.495 91.8597 112.495 91.2832V89.0596H113.762ZM120.863 89.0596V91.4443H123.661V89.0596H124.923V95H123.661V92.438H120.863V95H119.601V89.0596H120.863ZM127.996 91.4336H129.199C130.029 91.4336 130.644 91.5768 131.041 91.8633C131.438 92.1497 131.637 92.5794 131.637 93.1523C131.637 93.7646 131.43 94.2266 131.014 94.5381C130.602 94.846 129.997 95 129.199 95H126.733V89.0596H127.996V91.4336ZM130.386 93.1846C130.386 92.8874 130.275 92.6797 130.053 92.5615C129.834 92.4434 129.519 92.3843 129.107 92.3843H127.996V94.0654H128.946C129.455 94.0654 129.822 93.9938 130.047 93.8506C130.273 93.7074 130.386 93.4854 130.386 93.1846ZM133.839 95H132.572V89.0596H133.839V95ZM136.858 89.0596V92.105C136.858 92.4595 136.829 92.9805 136.772 93.668L139.753 89.0596H141.294V95H140.081V92.0083C140.081 91.8436 140.09 91.5768 140.107 91.208C140.129 90.8392 140.147 90.5706 140.161 90.4023L137.191 95H135.649V89.0596H136.858ZM138.432 88.3345C137.673 88.3345 137.116 88.1984 136.761 87.9263C136.41 87.6506 136.215 87.1922 136.176 86.5513H137.32C137.341 86.8091 137.39 87.0096 137.465 87.1528C137.544 87.2961 137.655 87.3999 137.798 87.4644C137.945 87.5252 138.167 87.5557 138.464 87.5557C138.815 87.5557 139.082 87.4787 139.264 87.3247C139.447 87.1672 139.558 86.9093 139.597 86.5513H140.763C140.709 87.1672 140.492 87.6183 140.113 87.9048C139.733 88.1912 139.173 88.3345 138.432 88.3345ZM69.209 110.107C68.3102 110.107 67.6263 109.846 67.1572 109.323C66.6917 108.797 66.459 108.043 66.459 107.062C66.459 106.063 66.7025 105.295 67.1895 104.758C67.68 104.221 68.3872 103.952 69.311 103.952C69.9377 103.952 70.5016 104.069 71.0029 104.301L70.6216 105.316C70.0881 105.109 69.6476 105.005 69.3003 105.005C68.2726 105.005 67.7588 105.687 67.7588 107.051C67.7588 107.717 67.8859 108.219 68.1401 108.555C68.3979 108.888 68.7739 109.055 69.2681 109.055C69.8302 109.055 70.362 108.915 70.8633 108.636V109.737C70.6377 109.869 70.396 109.964 70.1382 110.021C69.884 110.079 69.5742 110.107 69.209 110.107ZM74.854 110.107C73.9302 110.107 73.2069 109.839 72.6841 109.302C72.1649 108.761 71.9053 108.018 71.9053 107.073C71.9053 106.102 72.147 105.34 72.6304 104.785C73.1138 104.23 73.778 103.952 74.623 103.952C75.4072 103.952 76.0267 104.19 76.4814 104.667C76.9362 105.143 77.1636 105.798 77.1636 106.632V107.314H73.2051C73.223 107.891 73.3787 108.335 73.6724 108.646C73.966 108.954 74.3796 109.108 74.9131 109.108C75.264 109.108 75.5898 109.076 75.8906 109.012C76.195 108.944 76.5208 108.833 76.8682 108.679V109.705C76.5602 109.851 76.2487 109.955 75.9336 110.016C75.6185 110.077 75.2586 110.107 74.854 110.107ZM74.623 104.908C74.222 104.908 73.8997 105.035 73.6562 105.29C73.4163 105.544 73.2731 105.914 73.2266 106.401H75.9229C75.9157 105.911 75.7975 105.54 75.5684 105.29C75.3392 105.035 75.0241 104.908 74.623 104.908ZM81.6108 110.107C80.8589 110.107 80.2752 109.837 79.8599 109.296H79.7847C79.8348 109.798 79.8599 110.102 79.8599 110.209V112.643L78.5977 112.643V104.06L79.6182 104.06C79.6468 104.171 79.7059 104.436 79.7954 104.854H79.8599C80.2537 104.253 80.8446 103.952 81.6323 103.952C82.3735 103.952 82.95 104.221 83.3618 104.758C83.7772 105.295 83.9849 106.049 83.9849 107.019C83.9849 107.989 83.7736 108.747 83.3511 109.291C82.9321 109.835 82.3521 110.107 81.6108 110.107ZM81.3047 104.983C80.8034 104.983 80.4364 105.13 80.2036 105.424C79.9744 105.717 79.8599 106.187 79.8599 106.831V107.019C79.8599 107.742 79.9744 108.267 80.2036 108.593C80.4328 108.915 80.807 109.076 81.3262 109.076C81.763 109.076 82.0996 108.897 82.3359 108.539C82.5723 108.181 82.6904 107.671 82.6904 107.008C82.6904 106.342 82.5723 105.839 82.3359 105.499C82.1032 105.155 81.7594 104.983 81.3047 104.983ZM90.6074 105.58C90.6074 106.281 90.1974 106.706 89.3774 106.853V106.896C89.8358 106.949 90.1867 107.094 90.4302 107.331C90.6737 107.567 90.7954 107.873 90.7954 108.249C90.7954 108.811 90.5806 109.244 90.1509 109.549C89.7248 109.85 89.1035 110 88.2871 110H85.4512V104.06H88.2764C89.8304 104.06 90.6074 104.566 90.6074 105.58ZM89.501 108.174C89.501 107.887 89.39 107.685 89.168 107.567C88.946 107.445 88.613 107.384 88.1689 107.384H86.7134V109.065H88.2012C89.0677 109.065 89.501 108.768 89.501 108.174ZM89.3452 105.687C89.3452 105.451 89.2521 105.281 89.0659 105.177C88.8833 105.069 88.6094 105.016 88.2441 105.016H86.7134V106.444H88.0562C88.4787 106.444 88.7992 106.391 89.0176 106.283C89.236 106.172 89.3452 105.973 89.3452 105.687ZM93.3091 104.06V107.105C93.3091 107.459 93.2804 107.98 93.2231 108.668L96.2041 104.06H97.7456V110H96.5317V107.008C96.5317 106.844 96.5407 106.577 96.5586 106.208C96.5801 105.839 96.598 105.571 96.6123 105.402L93.6421 110H92.1006V104.06H93.3091ZM101.94 110.107C101.042 110.107 100.358 109.846 99.8887 109.323C99.4232 108.797 99.1904 108.043 99.1904 107.062C99.1904 106.063 99.4339 105.295 99.9209 104.758C100.411 104.221 101.119 103.952 102.042 103.952C102.669 103.952 103.233 104.069 103.734 104.301L103.353 105.316C102.819 105.109 102.379 105.005 102.032 105.005C101.004 105.005 100.49 105.687 100.49 107.051C100.49 107.717 100.617 108.219 100.872 108.555C101.129 108.888 101.505 109.055 102 109.055C102.562 109.055 103.093 108.915 103.595 108.636V109.737C103.369 109.869 103.127 109.964 102.87 110.021C102.615 110.079 102.306 110.107 101.94 110.107Z" fill="#303030"/>
<path d="M110.789 39.0547H107.68V37.6641H110.789V34.4766H112.195V37.6641H115.312V39.0547H112.195V42.2266H110.789V39.0547Z" fill="#FF6C00"/>
</svg>
