<svg width="170" height="133" viewBox="0 0 170 133" fill="none" xmlns="http://www.w3.org/2000/svg">
<rect width="170" height="133" fill="#F7F7F7"/>
<path d="M48.3238 52.2646C48.3238 50.542 48.4469 48.8398 48.693 47.1582C48.9527 45.4629 49.3971 43.8701 50.026 42.3799C50.6549 40.876 51.5367 39.5498 52.6715 38.4014C53.8063 37.2393 55.2486 36.3301 56.9986 35.6738C58.7486 35.0039 60.8678 34.6689 63.3561 34.6689C63.9439 34.6689 64.6275 34.6963 65.4068 34.751C66.1998 34.792 66.8561 34.8672 67.3756 34.9766V40.042C66.8287 39.9189 66.2408 39.8232 65.6119 39.7549C64.9967 39.6729 64.3814 39.6318 63.7662 39.6318C61.2779 39.6318 59.3502 40.0283 57.983 40.8213C56.6295 41.6143 55.6725 42.7148 55.1119 44.123C54.565 45.5176 54.2438 47.1445 54.148 49.0039H54.4146C54.7975 48.334 55.276 47.7393 55.8502 47.2197C56.4381 46.7002 57.149 46.29 57.983 45.9893C58.817 45.6748 59.7945 45.5176 60.9156 45.5176C62.6656 45.5176 64.1832 45.8936 65.4684 46.6455C66.7535 47.3838 67.7447 48.457 68.442 49.8652C69.1393 51.2734 69.4879 52.9893 69.4879 55.0127C69.4879 57.1729 69.0709 59.0322 68.2369 60.5908C67.4029 62.1494 66.2203 63.3457 64.6891 64.1797C63.1715 65 61.3668 65.4102 59.275 65.4102C57.7438 65.4102 56.315 65.1504 54.9889 64.6309C53.6627 64.0977 52.5006 63.291 51.5025 62.2109C50.5045 61.1309 49.7252 59.7705 49.1646 58.1299C48.6041 56.4756 48.3238 54.5205 48.3238 52.2646ZM59.152 60.3447C60.3961 60.3447 61.4078 59.9209 62.1871 59.0732C62.9664 58.2256 63.3561 56.8994 63.3561 55.0947C63.3561 53.6318 63.0143 52.4834 62.3307 51.6494C61.6607 50.8018 60.6422 50.3779 59.275 50.3779C58.3453 50.3779 57.525 50.5898 56.8141 51.0137C56.1168 51.4238 55.5768 51.9502 55.1939 52.5928C54.8111 53.2217 54.6197 53.8711 54.6197 54.541C54.6197 55.2383 54.7154 55.9287 54.9068 56.6123C55.0982 57.2959 55.3854 57.918 55.7682 58.4785C56.151 59.0391 56.6227 59.4902 57.1832 59.832C57.7574 60.1738 58.4137 60.3447 59.152 60.3447ZM95.459 50.0088C95.459 52.4287 95.2676 54.5889 94.8848 56.4893C94.5156 58.3896 93.9141 60.0029 93.0801 61.3291C92.2598 62.6553 91.1797 63.667 89.8398 64.3643C88.5 65.0615 86.873 65.4102 84.959 65.4102C82.5527 65.4102 80.5772 64.8018 79.0322 63.585C77.4873 62.3545 76.3457 60.5908 75.6074 58.2939C74.8691 55.9834 74.5 53.2217 74.5 50.0088C74.5 46.7686 74.835 44 75.5049 41.7031C76.1885 39.3926 77.2959 37.6221 78.8272 36.3916C80.3584 35.1611 82.4023 34.5459 84.959 34.5459C87.3516 34.5459 89.3203 35.1611 90.8652 36.3916C92.4238 37.6084 93.5791 39.3721 94.3311 41.6826C95.083 43.9795 95.459 46.7549 95.459 50.0088ZM80.7959 50.0088C80.7959 52.292 80.9189 54.1992 81.165 55.7305C81.4248 57.248 81.8555 58.3896 82.457 59.1553C83.0586 59.9209 83.8926 60.3037 84.959 60.3037C86.0117 60.3037 86.8389 59.9277 87.4404 59.1758C88.0557 58.4102 88.4932 57.2686 88.7529 55.751C89.0127 54.2197 89.1426 52.3057 89.1426 50.0088C89.1426 47.7256 89.0127 45.8184 88.7529 44.2871C88.4932 42.7559 88.0557 41.6074 87.4404 40.8418C86.8389 40.0625 86.0117 39.6729 84.959 39.6729C83.8926 39.6729 83.0586 40.0625 82.457 40.8418C81.8555 41.6074 81.4248 42.7559 81.165 44.2871C80.9189 45.8184 80.7959 47.7256 80.7959 50.0088ZM121.594 50.0088C121.594 52.4287 121.403 54.5889 121.02 56.4893C120.651 58.3896 120.049 60.0029 119.215 61.3291C118.395 62.6553 117.315 63.667 115.975 64.3643C114.635 65.0615 113.008 65.4102 111.094 65.4102C108.688 65.4102 106.712 64.8018 105.167 63.585C103.622 62.3545 102.481 60.5908 101.743 58.2939C101.004 55.9834 100.635 53.2217 100.635 50.0088C100.635 46.7686 100.97 44 101.64 41.7031C102.324 39.3926 103.431 37.6221 104.962 36.3916C106.494 35.1611 108.538 34.5459 111.094 34.5459C113.487 34.5459 115.455 35.1611 117 36.3916C118.559 37.6084 119.714 39.3721 120.466 41.6826C121.218 43.9795 121.594 46.7549 121.594 50.0088ZM106.931 50.0088C106.931 52.292 107.054 54.1992 107.3 55.7305C107.56 57.248 107.991 58.3896 108.592 59.1553C109.194 59.9209 110.028 60.3037 111.094 60.3037C112.147 60.3037 112.974 59.9277 113.576 59.1758C114.191 58.4102 114.628 57.2686 114.888 55.751C115.148 54.2197 115.278 52.3057 115.278 50.0088C115.278 47.7256 115.148 45.8184 114.888 44.2871C114.628 42.7559 114.191 41.6074 113.576 40.8418C112.974 40.0625 112.147 39.6729 111.094 39.6729C110.028 39.6729 109.194 40.0625 108.592 40.8418C107.991 41.6074 107.56 42.7559 107.3 44.2871C107.054 45.8184 106.931 47.7256 106.931 50.0088Z" fill="#303030"/>
<path d="M32.1538 87.1475V93.8989H33.1582V97.1699H31.9175L31.9175 95H26.729L26.729 97.1699H25.4883L25.4883 93.8989H26.0952C26.3315 93.4657 26.5553 92.993 26.7666 92.481C26.9779 91.9653 27.1712 91.4211 27.3467 90.8481C27.5221 90.2752 27.6707 89.679 27.7925 89.0596C27.9178 88.4365 28.0109 87.7992 28.0718 87.1475H32.1538ZM30.8701 88.2485H29.1353C29.0923 88.6603 29.0189 89.1115 28.915 89.6021C28.8148 90.089 28.6895 90.5868 28.5391 91.0952C28.3887 91.6037 28.2204 92.0978 28.0342 92.5776C27.8516 93.0575 27.6582 93.4979 27.4541 93.8989H30.8701V88.2485ZM39.5659 92.0137C39.5659 92.5078 39.5015 92.9465 39.3726 93.3296C39.2437 93.7127 39.0557 94.0368 38.8086 94.3018C38.5615 94.5632 38.2643 94.7637 37.917 94.9033C37.5697 95.0394 37.1776 95.1074 36.7407 95.1074C36.3325 95.1074 35.9583 95.0394 35.6182 94.9033C35.278 94.7637 34.9826 94.5632 34.7319 94.3018C34.4849 94.0368 34.2933 93.7127 34.1572 93.3296C34.0212 92.9465 33.9531 92.5078 33.9531 92.0137C33.9531 91.3584 34.0659 90.8034 34.2915 90.3486C34.5207 89.8903 34.8465 89.5412 35.269 89.3013C35.6916 89.0614 36.1947 88.9414 36.7783 88.9414C37.3262 88.9414 37.8096 89.0614 38.2285 89.3013C38.6475 89.5412 38.9751 89.8903 39.2114 90.3486C39.4478 90.807 39.5659 91.362 39.5659 92.0137ZM35.2529 92.0137C35.2529 92.4469 35.3049 92.8175 35.4087 93.1255C35.5161 93.4334 35.6808 93.6698 35.9028 93.8345C36.1248 93.9956 36.4113 94.0762 36.7622 94.0762C37.1131 94.0762 37.3996 93.9956 37.6216 93.8345C37.8436 93.6698 38.0065 93.4334 38.1104 93.1255C38.2142 92.8175 38.2661 92.4469 38.2661 92.0137C38.2661 91.5804 38.2142 91.2134 38.1104 90.9126C38.0065 90.6082 37.8436 90.3773 37.6216 90.2197C37.3996 90.0586 37.1113 89.978 36.7568 89.978C36.234 89.978 35.8527 90.1535 35.6128 90.5044C35.3729 90.8553 35.2529 91.3584 35.2529 92.0137ZM46.0166 90.5796C46.0166 90.9233 45.911 91.2044 45.6997 91.4229C45.492 91.6377 45.2056 91.7791 44.8403 91.8472V91.8901C45.2306 91.9403 45.5565 92.0781 45.8179 92.3037C46.0793 92.5293 46.21 92.8426 46.21 93.2437C46.21 93.5838 46.124 93.8864 45.9521 94.1514C45.7839 94.4128 45.5153 94.6204 45.1465 94.7744C44.7812 94.9248 44.3032 95 43.7124 95H41.0161V89.0542H43.7017C44.1457 89.0542 44.5413 89.1025 44.8887 89.1992C45.2396 89.2959 45.5153 89.4552 45.7158 89.6772C45.9163 89.8993 46.0166 90.2 46.0166 90.5796ZM44.894 93.2007C44.894 92.9071 44.7812 92.6958 44.5557 92.5669C44.3337 92.438 44.0078 92.3735 43.5781 92.3735H42.2837V94.0708H43.605C44.006 94.0708 44.3211 94.0046 44.5503 93.8721C44.7795 93.736 44.894 93.5122 44.894 93.2007ZM44.7329 90.6924C44.7329 90.4596 44.6452 90.2878 44.4697 90.1768C44.2943 90.0622 44.0186 90.0049 43.6426 90.0049H42.2837V91.4443H43.4707C43.8861 91.4443 44.1994 91.3853 44.4106 91.2671C44.6255 91.1453 44.7329 90.9538 44.7329 90.6924ZM52.897 92.0137C52.897 92.5078 52.8325 92.9465 52.7036 93.3296C52.5747 93.7127 52.3867 94.0368 52.1396 94.3018C51.8926 94.5632 51.5954 94.7637 51.248 94.9033C50.9007 95.0394 50.5086 95.1074 50.0718 95.1074C49.6636 95.1074 49.2894 95.0394 48.9492 94.9033C48.609 94.7637 48.3136 94.5632 48.063 94.3018C47.8159 94.0368 47.6243 93.7127 47.4883 93.3296C47.3522 92.9465 47.2842 92.5078 47.2842 92.0137C47.2842 91.3584 47.397 90.8034 47.6226 90.3486C47.8517 89.8903 48.1776 89.5412 48.6001 89.3013C49.0226 89.0614 49.5257 88.9414 50.1094 88.9414C50.6572 88.9414 51.1406 89.0614 51.5596 89.3013C51.9785 89.5412 52.3062 89.8903 52.5425 90.3486C52.7788 90.807 52.897 91.362 52.897 92.0137ZM48.584 92.0137C48.584 92.4469 48.6359 92.8175 48.7397 93.1255C48.8472 93.4334 49.0119 93.6698 49.2339 93.8345C49.4559 93.9956 49.7424 94.0762 50.0933 94.0762C50.4442 94.0762 50.7306 93.9956 50.9526 93.8345C51.1746 93.6698 51.3376 93.4334 51.4414 93.1255C51.5452 92.8175 51.5972 92.4469 51.5972 92.0137C51.5972 91.5804 51.5452 91.2134 51.4414 90.9126C51.3376 90.6082 51.1746 90.3773 50.9526 90.2197C50.7306 90.0586 50.4424 89.978 50.0879 89.978C49.5651 89.978 49.1838 90.1535 48.9438 90.5044C48.7039 90.8553 48.584 91.3584 48.584 92.0137ZM59.2402 95H57.9673V90.0425H56.3184C56.2467 90.9448 56.1572 91.7165 56.0498 92.3574C55.9424 92.9984 55.8081 93.5212 55.647 93.9258C55.4858 94.3268 55.2871 94.6204 55.0508 94.8066C54.8145 94.9928 54.5298 95.0859 54.1968 95.0859C54.05 95.0859 53.9175 95.0752 53.7993 95.0537C53.6812 95.0358 53.5755 95.0072 53.4824 94.9678V93.9741C53.5433 93.9956 53.6095 94.0135 53.6812 94.0278C53.7528 94.0422 53.8262 94.0493 53.9014 94.0493C54.0339 94.0493 54.1556 93.9956 54.2666 93.8882C54.3812 93.7772 54.4868 93.6035 54.5835 93.3672C54.6802 93.1309 54.7679 92.8193 54.8467 92.4326C54.9255 92.0423 54.9971 91.5697 55.0615 91.0146C55.126 90.4561 55.1833 89.8026 55.2334 89.0542H59.2402V95ZM62.3179 91.4282H63.7949C64.3535 91.4282 64.8154 91.4927 65.1807 91.6216C65.5495 91.7469 65.8252 91.9367 66.0078 92.1909C66.1904 92.4451 66.2817 92.7638 66.2817 93.147C66.2817 93.5229 66.1958 93.8506 66.0239 94.1299C65.8521 94.4056 65.5835 94.6204 65.2183 94.7744C64.8566 94.9248 64.384 95 63.8003 95H61.0503V89.0542H62.3179V91.4282ZM65.0142 93.1792C65.0142 92.882 64.9032 92.6725 64.6812 92.5508C64.4591 92.4255 64.1423 92.3628 63.7305 92.3628H62.3179V94.0708H63.7412C64.1172 94.0708 64.4233 94.0028 64.6597 93.8667C64.896 93.7271 65.0142 93.4979 65.0142 93.1792ZM68.9458 89.0542V91.4443H71.728V89.0542H72.9956V95H71.728V92.4326H68.9458V95H67.6782V89.0542H68.9458ZM74.8003 95V89.0542H76.0679V91.4282H77.2656C77.8242 91.4282 78.2843 91.4927 78.646 91.6216C79.0076 91.7469 79.2762 91.9367 79.4517 92.1909C79.6271 92.4451 79.7148 92.7638 79.7148 93.147C79.7148 93.5229 79.6307 93.8506 79.4624 94.1299C79.2941 94.4056 79.0309 94.6204 78.6729 94.7744C78.3148 94.9248 77.8457 95 77.2656 95H74.8003ZM76.0679 94.0708H77.1797C77.5592 94.0708 77.8654 94.0028 78.0981 93.8667C78.3345 93.7271 78.4526 93.4979 78.4526 93.1792C78.4526 92.882 78.3434 92.6725 78.125 92.5508C77.9102 92.4255 77.5951 92.3628 77.1797 92.3628H76.0679V94.0708ZM80.6333 95V89.0542H81.9009V95H80.6333ZM85.0215 91.96L83.0342 89.0542H84.4736L85.8325 91.1436L87.1968 89.0542H88.6309L86.6328 91.96L88.7329 95H87.2881L85.8325 92.771L84.3716 95H82.9375L85.0215 91.96ZM96.3062 89.0542H97.6973L95.2373 91.9116L97.9067 95H96.4512L93.8892 91.9814V95H92.6216V89.0542H93.8892V91.9385L96.3062 89.0542ZM103.767 95H102.494V90.0425H100.845C100.773 90.9448 100.684 91.7165 100.576 92.3574C100.469 92.9984 100.334 93.5212 100.173 93.9258C100.012 94.3268 99.8135 94.6204 99.5771 94.8066C99.3408 94.9928 99.0562 95.0859 98.7231 95.0859C98.5763 95.0859 98.4438 95.0752 98.3257 95.0537C98.2075 95.0358 98.1019 95.0072 98.0088 94.9678V93.9741C98.0697 93.9956 98.1359 94.0135 98.2075 94.0278C98.2791 94.0422 98.3525 94.0493 98.4277 94.0493C98.5602 94.0493 98.682 93.9956 98.793 93.8882C98.9076 93.7772 99.0132 93.6035 99.1099 93.3672C99.2065 93.1309 99.2943 92.8193 99.373 92.4326C99.4518 92.0423 99.5234 91.5697 99.5879 91.0146C99.6523 90.4561 99.7096 89.8026 99.7598 89.0542H103.767V95ZM106.791 89.0542V92.0889C106.791 92.1855 106.787 92.3091 106.78 92.4595C106.776 92.6063 106.769 92.7603 106.758 92.9214C106.748 93.0789 106.737 93.224 106.726 93.3564C106.715 93.4889 106.706 93.5874 106.699 93.6519L109.691 89.0542H111.227V95H110.019V91.9976C110.019 91.84 110.022 91.6574 110.029 91.4497C110.04 91.242 110.051 91.0415 110.062 90.8481C110.076 90.6548 110.085 90.508 110.088 90.4077L107.107 95H105.577V89.0542H106.791ZM115.411 88.9414C115.941 88.9414 116.396 89.0506 116.775 89.269C117.155 89.4875 117.447 89.7972 117.651 90.1982C117.855 90.5993 117.957 91.0791 117.957 91.6377V92.3145H113.988C114.002 92.891 114.156 93.335 114.45 93.6465C114.747 93.958 115.162 94.1138 115.696 94.1138C116.075 94.1138 116.416 94.078 116.716 94.0063C117.021 93.9312 117.334 93.8219 117.656 93.6787V94.7046C117.359 94.8442 117.056 94.9463 116.749 95.0107C116.441 95.0752 116.072 95.1074 115.642 95.1074C115.058 95.1074 114.545 94.9946 114.101 94.769C113.66 94.5399 113.315 94.1997 113.064 93.7485C112.817 93.2974 112.693 92.737 112.693 92.0674C112.693 91.4014 112.806 90.8356 113.032 90.3701C113.257 89.9046 113.574 89.5501 113.982 89.3066C114.391 89.0632 114.867 88.9414 115.411 88.9414ZM115.411 89.8921C115.014 89.8921 114.691 90.021 114.444 90.2788C114.201 90.5366 114.058 90.9144 114.015 91.4121H116.722C116.718 91.1149 116.668 90.8517 116.571 90.6226C116.478 90.3934 116.335 90.2144 116.142 90.0854C115.952 89.9565 115.708 89.8921 115.411 89.8921ZM120.648 89.0542V91.4443H123.43V89.0542H124.698V95H123.43V92.4326H120.648V95H119.38V89.0542H120.648ZM130.993 90.0479H129.038V95H127.781V90.0479H125.836V89.0542H130.993V90.0479ZM137.406 92.0137C137.406 92.5078 137.341 92.9465 137.212 93.3296C137.083 93.7127 136.896 94.0368 136.648 94.3018C136.401 94.5632 136.104 94.7637 135.757 94.9033C135.41 95.0394 135.017 95.1074 134.581 95.1074C134.172 95.1074 133.798 95.0394 133.458 94.9033C133.118 94.7637 132.822 94.5632 132.572 94.3018C132.325 94.0368 132.133 93.7127 131.997 93.3296C131.861 92.9465 131.793 92.5078 131.793 92.0137C131.793 91.3584 131.906 90.8034 132.131 90.3486C132.361 89.8903 132.686 89.5412 133.109 89.3013C133.531 89.0614 134.035 88.9414 134.618 88.9414C135.166 88.9414 135.649 89.0614 136.068 89.3013C136.487 89.5412 136.815 89.8903 137.051 90.3486C137.288 90.807 137.406 91.362 137.406 92.0137ZM133.093 92.0137C133.093 92.4469 133.145 92.8175 133.249 93.1255C133.356 93.4334 133.521 93.6698 133.743 93.8345C133.965 93.9956 134.251 94.0762 134.602 94.0762C134.953 94.0762 135.239 93.9956 135.461 93.8345C135.683 93.6698 135.846 93.4334 135.95 93.1255C136.054 92.8175 136.106 92.4469 136.106 92.0137C136.106 91.5804 136.054 91.2134 135.95 90.9126C135.846 90.6082 135.683 90.3773 135.461 90.2197C135.239 90.0586 134.951 89.978 134.597 89.978C134.074 89.978 133.693 90.1535 133.453 90.5044C133.213 90.8553 133.093 91.3584 133.093 92.0137ZM143.856 90.5796C143.856 90.9233 143.751 91.2044 143.54 91.4229C143.332 91.6377 143.045 91.7791 142.68 91.8472V91.8901C143.07 91.9403 143.396 92.0781 143.658 92.3037C143.919 92.5293 144.05 92.8426 144.05 93.2437C144.05 93.5838 143.964 93.8864 143.792 94.1514C143.624 94.4128 143.355 94.6204 142.986 94.7744C142.621 94.9248 142.143 95 141.552 95H138.856V89.0542H141.542C141.986 89.0542 142.381 89.1025 142.729 89.1992C143.079 89.2959 143.355 89.4552 143.556 89.6772C143.756 89.8993 143.856 90.2 143.856 90.5796ZM142.734 93.2007C142.734 92.9071 142.621 92.6958 142.396 92.5669C142.174 92.438 141.848 92.3735 141.418 92.3735H140.124V94.0708H141.445C141.846 94.0708 142.161 94.0046 142.39 93.8721C142.619 93.736 142.734 93.5122 142.734 93.2007ZM142.573 90.6924C142.573 90.4596 142.485 90.2878 142.31 90.1768C142.134 90.0622 141.858 90.0049 141.482 90.0049H140.124V91.4443H141.311C141.726 91.4443 142.039 91.3853 142.25 91.2671C142.465 91.1453 142.573 90.9538 142.573 90.6924ZM72.7109 105.58C72.7109 105.923 72.6053 106.204 72.394 106.423C72.1864 106.638 71.8999 106.779 71.5347 106.847V106.89C71.925 106.94 72.2508 107.078 72.5122 107.304C72.7736 107.529 72.9043 107.843 72.9043 108.244C72.9043 108.584 72.8184 108.886 72.6465 109.151C72.4782 109.413 72.2096 109.62 71.8408 109.774C71.4756 109.925 70.9976 110 70.4067 110H67.7104V104.054H70.396C70.84 104.054 71.2357 104.103 71.583 104.199C71.9339 104.296 72.2096 104.455 72.4102 104.677C72.6107 104.899 72.7109 105.2 72.7109 105.58ZM71.5884 108.201C71.5884 107.907 71.4756 107.696 71.25 107.567C71.028 107.438 70.7021 107.374 70.2725 107.374H68.978V109.071H70.2993C70.7004 109.071 71.0155 109.005 71.2446 108.872C71.4738 108.736 71.5884 108.512 71.5884 108.201ZM71.4272 105.692C71.4272 105.46 71.3395 105.288 71.1641 105.177C70.9886 105.062 70.7129 105.005 70.3369 105.005H68.978V106.444H70.165C70.5804 106.444 70.8937 106.385 71.105 106.267C71.3198 106.145 71.4272 105.954 71.4272 105.692ZM82.0405 104.054V109.022H82.8999V112.095H81.7344V110L77.6309 110V112.095H76.4653V109.022H76.9487C77.2495 108.586 77.5002 108.099 77.7007 107.562C77.9048 107.024 78.0623 106.459 78.1733 105.864C78.2879 105.266 78.3595 104.663 78.3882 104.054L82.0405 104.054ZM80.7891 105.021H79.4731C79.4302 105.504 79.3568 105.986 79.2529 106.466C79.1491 106.942 79.0148 107.399 78.8501 107.835C78.689 108.269 78.4956 108.664 78.27 109.022L80.7891 109.022V105.021ZM86.375 103.941C86.9049 103.941 87.3597 104.051 87.7393 104.269C88.1188 104.487 88.4106 104.797 88.6147 105.198C88.8188 105.599 88.9209 106.079 88.9209 106.638V107.314H84.9517C84.966 107.891 85.12 108.335 85.4136 108.646C85.7108 108.958 86.1261 109.114 86.6597 109.114C87.0392 109.114 87.3794 109.078 87.6802 109.006C87.9845 108.931 88.2979 108.822 88.6201 108.679V109.705C88.3229 109.844 88.0203 109.946 87.7124 110.011C87.4045 110.075 87.0356 110.107 86.606 110.107C86.0223 110.107 85.5085 109.995 85.0645 109.769C84.624 109.54 84.2785 109.2 84.0278 108.749C83.7808 108.297 83.6572 107.737 83.6572 107.067C83.6572 106.401 83.77 105.836 83.9956 105.37C84.2212 104.905 84.5381 104.55 84.9463 104.307C85.3545 104.063 85.8307 103.941 86.375 103.941ZM86.375 104.892C85.9775 104.892 85.6553 105.021 85.4082 105.279C85.1647 105.537 85.0215 105.914 84.9785 106.412H87.6855C87.682 106.115 87.6318 105.852 87.5352 105.623C87.4421 105.393 87.2988 105.214 87.1055 105.085C86.9157 104.957 86.6722 104.892 86.375 104.892ZM91.6118 104.054V106.444H94.394V104.054H95.6616V110H94.394V107.433H91.6118V110H90.3442V104.054H91.6118ZM98.7339 106.428H100.211C100.77 106.428 101.231 106.493 101.597 106.622C101.965 106.747 102.241 106.937 102.424 107.191C102.606 107.445 102.698 107.764 102.698 108.147C102.698 108.523 102.612 108.851 102.44 109.13C102.268 109.406 102 109.62 101.634 109.774C101.273 109.925 100.8 110 100.216 110H97.4663V104.054H98.7339V106.428ZM101.43 108.179C101.43 107.882 101.319 107.673 101.097 107.551C100.875 107.425 100.558 107.363 100.146 107.363H98.7339V109.071H100.157C100.533 109.071 100.839 109.003 101.076 108.867C101.312 108.727 101.43 108.498 101.43 108.179Z" fill="#303030"/>
<path d="M134.18 37.6641H137.305V39.0547H134.18V42.2109H132.789V39.0547H129.672V37.6641H132.789V34.4766H134.18V37.6641Z" fill="#FF6C00"/>
</svg>
